<svg width="81" height="81" viewBox="0 0 81 81" fill="none" xmlns="http://www.w3.org/2000/svg">
<path d="M40.5 81C18.1315 81 0 62.8685 0 40.5C0 18.1315 18.1315 0 40.5 0C62.8685 0 81 18.1315 81 40.5C81 62.8685 62.8685 81 40.5 81ZM59.0708 28.6896C59.831 27.9294 59.831 26.6926 59.0708 25.9325L54.9336 21.7983C54.1734 21.0382 52.9366 21.0382 52.1765 21.7983L40.4595 33.5153L28.7425 21.7983C27.9824 21.0382 26.7456 21.0382 25.9854 21.7983L21.8482 25.9325C21.088 26.6926 21.088 27.9294 21.8482 28.6896L33.5683 40.4097L21.8482 52.1235C21.088 52.8837 21.088 54.1205 21.8482 54.8806L25.9854 59.0178C26.7456 59.778 27.9824 59.778 28.7425 59.0178L40.4595 47.2978L52.1765 59.0178C52.9366 59.778 54.1734 59.778 54.9336 59.0178L59.0708 54.8806C59.831 54.1205 59.831 52.8837 59.0708 52.1235L47.3507 40.4097L59.0708 28.6896Z" fill="#8B8B8B"/>
</svg>
