<svg width="204" height="136" viewBox="0 0 204 136" fill="none" xmlns="http://www.w3.org/2000/svg">
<path d="M60.2222 12.6216L196 12.6282M60.2222 68.0065L196 68.0138M60.2222 123.391L196 123.398M13.2222 12.6154H13.3267M13.2222 68H13.3267M13.2222 123.385H13.3267M18.4444 12.6154C18.4444 15.1644 16.1064 17.2308 13.2222 17.2308C10.3381 17.2308 8 15.1644 8 12.6154C8 10.0664 10.3381 8 13.2222 8C16.1064 8 18.4444 10.0664 18.4444 12.6154ZM18.4444 68C18.4444 70.5486 16.1064 72.6154 13.2222 72.6154C10.3381 72.6154 8 70.5486 8 68C8 65.4514 10.3381 63.3846 13.2222 63.3846C16.1064 63.3846 18.4444 65.4514 18.4444 68ZM18.4444 123.385C18.4444 125.933 16.1064 128 13.2222 128C10.3381 128 8 125.933 8 123.385C8 120.836 10.3381 118.769 13.2222 118.769C16.1064 118.769 18.4444 120.836 18.4444 123.385Z" stroke="#292F3F" stroke-width="15" stroke-linecap="round" stroke-linejoin="round"/>
</svg>
