<svg width="82" height="85" viewBox="0 0 82 85" fill="none" xmlns="http://www.w3.org/2000/svg">
<path fill-rule="evenodd" clip-rule="evenodd" d="M56.3504 44.8532H43.5435H42.5C42.5 44.8532 42.4164 44.8532 41 44.8532C39.5836 44.8532 39.6695 44.8532 39.6695 44.8532H38.4208H25.6138C24.1974 44.8532 23.0525 43.6659 23.0525 42.2148C23.0525 40.7636 24.1974 39.5763 25.6138 39.5763H38.4208H39.5C39.5 39.5763 39.5836 39.5763 41 39.5763C42.4164 39.5763 42.5 39.5763 42.5 39.5763H43.5435H56.3504C57.7669 39.5763 58.9118 40.7636 58.9118 42.2148C58.9118 43.6659 57.7669 44.8532 56.3504 44.8532ZM40.9821 0C18.3472 0 0 18.8911 0 42.2148C0 65.5384 18.3472 84.4295 40.9821 84.4295C63.6171 84.4295 81.9643 65.5384 81.9643 42.2148C81.9643 18.8911 63.6171 0 40.9821 0Z" fill="#18C81F" fill-opacity="0.83"/>
</svg>
