<svg width="169" height="199" viewBox="0 0 169 199" fill="none" xmlns="http://www.w3.org/2000/svg">
<path d="M166.396 52.7312C166.385 52.7184 166.374 52.7056 166.362 52.6928C166.171 52.4903 165.971 52.2909 165.753 52.0981L109.588 2.43781C109.37 2.24499 109.145 2.06808 108.916 1.89931C108.902 1.88884 108.887 1.87914 108.872 1.86905C106.952 0.470026 104.688 -0.0983507 102.497 0.0137728H9.36067C4.19087 0.0137728 0 3.71928 0 8.29035V190.378C0 194.949 4.19087 198.654 9.36067 198.654H159.134C164.303 198.654 168.494 194.949 168.494 190.378V58.3681C168.622 56.4309 167.979 54.4286 166.396 52.7312ZM136.535 49.674H112.33V28.272L136.535 49.674ZM18.7218 182.101V16.5669H93.6085V57.9506C93.6085 62.5217 97.7994 66.2272 102.969 66.2272H149.773V182.101H18.7218Z" fill="#292F3F"/>
<path d="M131.052 99.3345H112.33C107.16 99.3345 102.969 103.04 102.969 107.611C102.969 112.182 107.16 115.888 112.33 115.888H131.052C136.221 115.888 140.412 112.182 140.412 107.611C140.412 103.04 136.221 99.3345 131.052 99.3345Z" fill="#292F3F"/>
<path d="M37.4431 115.888H74.8863C80.0561 115.888 84.2469 112.182 84.2469 107.611C84.2469 103.04 80.0561 99.3345 74.8863 99.3345H37.4431C32.2733 99.3345 28.0825 103.04 28.0825 107.611C28.0825 112.182 32.2733 115.888 37.4431 115.888Z" fill="#292F3F"/>
<path d="M122.023 138.514C120.263 146.302 94.1 138.348 90.8705 134.864C86.8639 130.56 79.1132 132.422 76.1645 136.544C71.6994 142.785 49.7016 142.66 45.5265 136.544C39.3111 127.431 23.1167 135.741 29.3602 144.895C39.2834 159.439 68.523 161.525 84.7691 151.688C102.051 160.568 135.83 161.707 140.08 142.917C142.429 132.513 124.391 128.06 122.023 138.514Z" fill="#292F3F"/>
</svg>
